<?xml version="1.0" encoding="UTF-8" standalone="no"?>
<!-- Created with Inkscape (http://www.inkscape.org/) -->

<svg
   width="144"
   height="144"
   viewBox="0 0 144 144.00001"
   version="1.1"
   id="svg5"
   inkscape:version="1.1.1 (3bf5ae0d25, 2021-09-20)"
   sodipodi:docname="continue.svg"
   xmlns:inkscape="http://www.inkscape.org/namespaces/inkscape"
   xmlns:sodipodi="http://sodipodi.sourceforge.net/DTD/sodipodi-0.dtd"
   xmlns="http://www.w3.org/2000/svg"
   xmlns:svg="http://www.w3.org/2000/svg">
  <sodipodi:namedview
     id="namedview7"
     pagecolor="#404040"
     bordercolor="#666666"
     borderopacity="1.0"
     inkscape:pageshadow="2"
     inkscape:pageopacity="0"
     inkscape:pagecheckerboard="true"
     inkscape:document-units="px"
     showgrid="false"
     units="in"
     width="128px"
     inkscape:zoom="8"
     inkscape:cx="74.75"
     inkscape:cy="39.9375"
     inkscape:window-width="2560"
     inkscape:window-height="1373"
     inkscape:window-x="-9"
     inkscape:window-y="-9"
     inkscape:window-maximized="1"
     inkscape:current-layer="layer2"
     showguides="true"
     inkscape:guide-bbox="true" />
  <defs
     id="defs2" />
  <g
     inkscape:groupmode="layer"
     id="layer2"
     inkscape:label="Layer 2">
    <path
       id="rect848"
       style="fill:#ffffff;fill-opacity:1;stroke-width:16;stroke-linecap:round"
       d="m 46.013672,35.994141 c -0.07256,0 -0.142921,0.0092 -0.214844,0.01172 -0.09398,0.0034 -0.187721,0.0058 -0.28125,0.01367 -0.10871,0.0088 -0.215306,0.0226 -0.322266,0.03711 -0.08949,0.01241 -0.178826,0.0246 -0.267578,0.04102 -0.119585,0.02174 -0.236557,0.04945 -0.353515,0.07813 -0.05596,0.01388 -0.112432,0.02553 -0.167969,0.04102 -0.157809,0.04357 -0.312612,0.09459 -0.464844,0.150391 -0.01295,0.0048 -0.02614,0.0088 -0.03906,0.01367 -0.172273,0.0645 -0.339659,0.137364 -0.503906,0.216797 -0.0058,0.0028 -0.01182,0.005 -0.01758,0.0078 -0.171668,0.08371 -0.338086,0.176269 -0.5,0.27539 -1.500245,0.918432 -2.560235,2.473414 -2.80664,4.298829 -0.0051,0.03649 -0.01122,0.07286 -0.01563,0.109374 -0.01289,0.110856 -0.01858,0.223284 -0.02539,0.335938 -0.0063,0.0985 -0.01426,0.196563 -0.01563,0.294922 -3.03e-4,0.02499 -0.0039,0.04915 -0.0039,0.07422 v 59.999998 c 0,0.0264 0.0036,0.0518 0.0039,0.0781 0.0014,0.10872 0.0083,0.21728 0.01563,0.32617 0.0064,0.0967 0.01254,0.19367 0.02344,0.28906 0.0078,0.0666 0.01926,0.13275 0.0293,0.19922 0.02094,0.14126 0.04368,0.2821 0.07422,0.41992 0.0035,0.0157 0.0081,0.0312 0.01172,0.0469 0.04183,0.18177 0.09254,0.3602 0.150391,0.53515 0.129141,0.39055 0.297621,0.76136 0.5,1.11133 0.103392,0.17879 0.215221,0.35117 0.335937,0.51758 0.113764,0.15682 0.235177,0.30834 0.363281,0.45312 0.01345,0.0153 0.02743,0.0298 0.04102,0.0449 0.105978,0.11736 0.215191,0.23124 0.330078,0.33985 0.04995,0.0475 0.100999,0.0931 0.152344,0.13867 0.08784,0.0775 0.177202,0.1523 0.269531,0.22461 0.06857,0.054 0.138394,0.10552 0.208985,0.15625 0.07818,0.0559 0.157345,0.10994 0.238281,0.16211 0.09243,0.0599 0.185992,0.11739 0.28125,0.17187 0.06452,0.0367 0.129309,0.0731 0.195312,0.10743 0.112735,0.059 0.227783,0.11246 0.34375,0.16406 0.0558,0.0247 0.111283,0.0493 0.167969,0.0723 0.13844,0.0566 0.277837,0.10825 0.419922,0.1543 0.03057,0.01 0.06102,0.02 0.0918,0.0293 1.134195,0.34754 2.365862,0.35937 3.541015,-0.01 0.149687,-0.047 0.297892,-0.10268 0.445313,-0.16211 0.04619,-0.0184 0.09306,-0.0351 0.138672,-0.0547 0.103937,-0.0449 0.206183,-0.0972 0.308593,-0.14844 0.08271,-0.0412 0.165634,-0.0821 0.246094,-0.12695 0.0256,-0.0143 0.05264,-0.0244 0.07813,-0.0391 L 100.98047,77.195312 c 0.17734,-0.102505 0.35054,-0.212851 0.51758,-0.333984 0.003,-0.0019 0.005,-0.0039 0.008,-0.0059 0.12872,-0.09367 0.25328,-0.194305 0.375,-0.298828 0.0376,-0.03201 0.0766,-0.06291 0.11328,-0.0957 0.0807,-0.07287 0.15726,-0.150798 0.23438,-0.228516 0.0726,-0.07251 0.14458,-0.145049 0.21289,-0.220703 0.0304,-0.03401 0.0581,-0.07065 0.0879,-0.105469 0.10918,-0.126698 0.2151,-0.254372 0.3125,-0.388672 0.006,-0.0087 0.0114,-0.01861 0.0176,-0.02734 0.10957,-0.152842 0.21256,-0.309305 0.30664,-0.470703 0.004,-0.0066 0.008,-0.01289 0.0117,-0.01953 0.009,-0.0148 0.015,-0.03008 0.0234,-0.04492 0.0931,-0.164291 0.17901,-0.332285 0.25586,-0.503906 0.005,-0.01101 0.009,-0.02218 0.0137,-0.0332 0.0687,-0.155918 0.13046,-0.313729 0.18555,-0.47461 0.0168,-0.04867 0.0314,-0.09759 0.0469,-0.146484 0.0422,-0.134354 0.0807,-0.269277 0.11329,-0.40625 0.0144,-0.05986 0.0266,-0.119632 0.0391,-0.179687 0.0258,-0.125011 0.0486,-0.250403 0.0664,-0.376954 0.0116,-0.08149 0.0211,-0.162546 0.0293,-0.24414 0.01,-0.09751 0.0166,-0.194911 0.0215,-0.292969 0.005,-0.09923 0.008,-0.197839 0.008,-0.296875 -4e-5,-0.09904 -0.003,-0.19765 -0.008,-0.296875 -0.005,-0.09806 -0.0119,-0.195458 -0.0215,-0.292969 -0.008,-0.08159 -0.0177,-0.162652 -0.0293,-0.24414 -0.0178,-0.126551 -0.0406,-0.251943 -0.0664,-0.376954 -0.0125,-0.06006 -0.0247,-0.119824 -0.0391,-0.179687 -0.0326,-0.136973 -0.0711,-0.271896 -0.11329,-0.40625 -0.0155,-0.04889 -0.0301,-0.09781 -0.0469,-0.146484 -0.059,-0.172197 -0.12467,-0.34134 -0.19922,-0.507813 -0.002,-0.0053 -0.005,-0.01037 -0.008,-0.01563 -0.075,-0.166106 -0.15785,-0.329077 -0.24805,-0.488281 -0.008,-0.01484 -0.0149,-0.03012 -0.0234,-0.04492 -0.004,-0.0066 -0.008,-0.01291 -0.0117,-0.01953 -0.0995,-0.170718 -0.20739,-0.336942 -0.32422,-0.498047 -0.002,-0.0027 -0.004,-0.0051 -0.006,-0.0078 -0.0957,-0.131521 -0.19961,-0.256653 -0.30664,-0.380859 -0.0298,-0.03482 -0.0575,-0.07146 -0.0879,-0.105469 -0.0683,-0.07565 -0.14032,-0.148192 -0.21289,-0.220703 -0.0771,-0.07772 -0.15368,-0.155649 -0.23438,-0.228516 -0.0366,-0.0328 -0.0757,-0.06369 -0.11328,-0.0957 -0.12422,-0.106665 -0.25132,-0.209327 -0.38281,-0.304687 -0.008,-0.0057 -0.0174,-0.0099 -0.0254,-0.01563 -0.15949,-0.114441 -0.32341,-0.2208 -0.49219,-0.318359 L 49.091797,36.847656 c -0.371065,-0.221672 -0.765696,-0.406738 -1.183594,-0.544922 -0.156478,-0.05174 -0.316544,-0.09385 -0.478515,-0.132812 -0.04188,-0.01023 -0.08302,-0.02391 -0.125,-0.0332 -0.117353,-0.02555 -0.23757,-0.04389 -0.357422,-0.0625 -0.08146,-0.01288 -0.162532,-0.02765 -0.244141,-0.03711 -0.09411,-0.01069 -0.189749,-0.01712 -0.285156,-0.02344 -0.108887,-0.0073 -0.217449,-0.01426 -0.326172,-0.01563 -0.0263,-3.36e-4 -0.05174,-0.0039 -0.07813,-0.0039 z"
       sodipodi:nodetypes="sccccccccscsccccssccccscssscccccccccccccccccccccccccccccccccccccccccccccccccccccccccccccccccscccccsss" />
  </g>
</svg>
