<?xml version="1.0" encoding="UTF-8" standalone="no"?>
<!-- Created with Inkscape (http://www.inkscape.org/) -->

<svg
   width="144"
   height="144"
   viewBox="0 0 144 144.00001"
   version="1.1"
   id="svg5"
   inkscape:version="1.1.1 (3bf5ae0d25, 2021-09-20)"
   sodipodi:docname="replay.svg"
   xmlns:inkscape="http://www.inkscape.org/namespaces/inkscape"
   xmlns:sodipodi="http://sodipodi.sourceforge.net/DTD/sodipodi-0.dtd"
   xmlns="http://www.w3.org/2000/svg"
   xmlns:svg="http://www.w3.org/2000/svg">
  <sodipodi:namedview
     id="namedview7"
     pagecolor="#404040"
     bordercolor="#666666"
     borderopacity="1.0"
     inkscape:pageshadow="2"
     inkscape:pageopacity="0"
     inkscape:pagecheckerboard="true"
     inkscape:document-units="px"
     showgrid="false"
     units="in"
     width="128px"
     inkscape:zoom="2"
     inkscape:cx="66"
     inkscape:cy="-25.75"
     inkscape:window-width="2560"
     inkscape:window-height="1373"
     inkscape:window-x="-9"
     inkscape:window-y="-9"
     inkscape:window-maximized="1"
     inkscape:current-layer="layer1"
     showguides="true"
     inkscape:guide-bbox="true" />
  <defs
     id="defs2" />
  <g
     inkscape:label="Layer 1"
     inkscape:groupmode="layer"
     id="layer1">
    <path
       id="path850"
       style="fill:#ffffff;fill-opacity:1;stroke:none;stroke-width:12;stroke-linecap:round;stroke-miterlimit:4;stroke-dasharray:none;stroke-opacity:1"
       d="M 72,30 A 42,42 0 0 0 30,72 42,42 0 0 0 72,114 42,42 0 0 0 114,72 42,42 0 0 0 72,30 Z m -6.5,28 c 0.01461,0 0.02839,0.0018 0.04297,0.002 0.06418,7e-4 0.129079,0.0054 0.193359,0.0098 0.05642,0.0038 0.112329,0.0073 0.167969,0.01367 0.03882,0.0045 0.07842,0.01178 0.117187,0.01758 0.0821,0.01216 0.162128,0.02524 0.242188,0.04297 0.0022,5.59e-4 0.0055,-5.16e-4 0.0078,0 0.0085,0.0019 0.01689,0.0059 0.02539,0.0078 0.105008,0.02429 0.207494,0.05248 0.308594,0.08594 0.111613,0.03697 0.221877,0.08136 0.328125,0.128906 0.109985,0.04923 0.216755,0.104172 0.320312,0.164062 l 0.01953,0.0098 17.947265,10.363281 c 0.0011,5.58e-4 0.0029,0.0014 0.0039,0.002 0.485204,0.236663 0.919036,0.590534 1.259766,1.044922 0.04813,0.06419 0.09246,0.130949 0.136719,0.199219 0.02496,0.03823 0.05083,0.07617 0.07422,0.115234 0.0081,0.01361 0.01749,0.02531 0.02539,0.03906 0.01831,0.03171 0.03162,0.06564 0.04883,0.09766 0.03333,0.06183 0.06622,0.12394 0.0957,0.1875 0.01642,0.03539 0.03173,0.06979 0.04687,0.105469 0.02966,0.06996 0.05703,0.14125 0.08203,0.21289 0.01629,0.04653 0.0307,0.09376 0.04492,0.140625 0.01724,0.05699 0.03256,0.114095 0.04688,0.171875 0.01347,0.05429 0.02632,0.10755 0.03711,0.16211 0.0113,0.0571 0.0209,0.114225 0.0293,0.171875 0.0086,0.0589 0.01598,0.118734 0.02148,0.177734 0.0046,0.04896 0.0091,0.09728 0.01172,0.146484 0.0031,0.06016 0.0039,0.119648 0.0039,0.179688 0,0.06004 -8.06e-4,0.119528 -0.0039,0.179688 -0.0026,0.0492 -0.007,0.09752 -0.01172,0.146484 -0.0055,0.059 -0.01288,0.118824 -0.02148,0.177734 -0.0084,0.05765 -0.01801,0.114775 -0.0293,0.171875 -0.01078,0.05456 -0.02364,0.10782 -0.03711,0.16211 -0.01431,0.05779 -0.02963,0.114895 -0.04688,0.171875 -0.01421,0.04687 -0.02863,0.09409 -0.04492,0.140625 -0.02501,0.07164 -0.05237,0.14293 -0.08203,0.21289 -0.01515,0.03567 -0.03046,0.07203 -0.04687,0.107422 -0.02947,0.06356 -0.06236,0.123727 -0.0957,0.185547 -0.01721,0.03202 -0.03053,0.06595 -0.04883,0.09766 -0.0079,0.01376 -0.01729,0.02545 -0.02539,0.03906 -0.02338,0.03907 -0.04925,0.077 -0.07422,0.115234 -0.04425,0.06826 -0.08859,0.135029 -0.136719,0.199219 -0.34073,0.454388 -0.774562,0.808259 -1.259766,1.044922 l -0.0039,0.002 -17.966797,10.375 c -0.203596,0.117739 -0.421286,0.215766 -0.648437,0.291015 -0.101098,0.03345 -0.203585,0.06167 -0.308594,0.08594 -0.0084,0.0021 -0.01699,0.006 -0.02539,0.0078 -0.0823,0.01838 -0.16558,0.03043 -0.25,0.04297 -0.03877,0.0059 -0.07836,0.01288 -0.117187,0.01758 -0.05564,0.0063 -0.111549,0.01017 -0.167969,0.01367 -0.06428,0.0044 -0.129179,0.0092 -0.193359,0.0098 -0.01457,0 -0.02835,0.002 -0.04297,0.002 -0.03423,0 -0.06757,-0.0027 -0.101562,-0.0039 -0.06784,-0.002 -0.135685,-0.0058 -0.203126,-0.01172 -0.05947,-0.0051 -0.117211,-0.01348 -0.175781,-0.02148 -0.04567,-0.0064 -0.09138,-0.01133 -0.136719,-0.01953 -0.08263,-0.01464 -0.16365,-0.03445 -0.24414,-0.05469 -0.02357,-0.006 -0.04688,-0.01108 -0.07031,-0.01758 -0.08343,-0.02287 -0.165313,-0.04936 -0.246093,-0.07813 -0.0259,-0.0093 -0.05244,-0.01744 -0.07813,-0.02734 -0.09043,-0.03462 -0.179025,-0.07352 -0.265625,-0.115234 -0.0064,-0.0031 -0.01303,-0.0069 -0.01953,-0.0098 -1.026331,-0.5021 -1.765215,-1.487173 -1.923828,-2.666016 -0.0029,-0.02087 -0.0073,-0.04162 -0.0098,-0.0625 -0.0075,-0.06461 -0.0097,-0.131605 -0.01367,-0.197265 -0.0037,-0.05822 -0.009,-0.115688 -0.0098,-0.173828 C 62.001753,82.527206 62,82.51385 62,82.5 v -21 c 0,-0.01385 0.0018,-0.02721 0.002,-0.04102 8e-4,-0.05814 0.0061,-0.115608 0.0098,-0.173828 0.004,-0.06566 0.0062,-0.132655 0.01367,-0.197265 0.0025,-0.02088 0.0069,-0.04163 0.0098,-0.0625 0.14339,-1.065708 0.76085,-1.973817 1.636719,-2.509766 0.09298,-0.0569 0.188609,-0.10806 0.287109,-0.15625 0.0064,-0.0031 0.01303,-0.0067 0.01953,-0.0098 0.0866,-0.0417 0.175195,-0.08061 0.265625,-0.115234 0.02569,-0.0099 0.05222,-0.01804 0.07813,-0.02734 0.08078,-0.02874 0.162663,-0.05524 0.246093,-0.07813 0.02344,-0.0065 0.04674,-0.01158 0.07031,-0.01758 0.08049,-0.02027 0.161511,-0.04008 0.24414,-0.05469 0.04535,-0.0082 0.09105,-0.01313 0.136719,-0.01953 0.05856,-0.008 0.116311,-0.01638 0.175781,-0.02148 0.06744,-0.006 0.135285,-0.0097 0.203126,-0.01172 C 65.432427,58.002906 65.46577,58 65.5,58 Z" />
  </g>
</svg>
